<?xml version="1.0" encoding="UTF-8" standalone="no"?>

<svg
   width="134"
   height="137.96063"
   viewBox="0 0 35.454179 36.502089"
   version="1.1"
   id="svg5"
   inkscape:version="1.1.2 (b8e25be833, 2022-02-05)"
   sodipodi:docname="logo.svg"
   xmlns:inkscape="http://www.inkscape.org/namespaces/inkscape"
   xmlns:sodipodi="http://sodipodi.sourceforge.net/DTD/sodipodi-0.dtd"
   xmlns="http://www.w3.org/2000/svg"
   xmlns:svg="http://www.w3.org/2000/svg">
  <sodipodi:namedview
     id="namedview7"
     pagecolor="#ffffff"
     bordercolor="#999999"
     borderopacity="1"
     inkscape:pageshadow="0"
     inkscape:pageopacity="0"
     inkscape:pagecheckerboard="0"
     inkscape:document-units="px"
     showgrid="false"
     showborder="true"
     showguides="true"
     inkscape:guide-bbox="true"
     inkscape:object-nodes="true"
     units="px"
     inkscape:zoom="4"
     inkscape:cx="-3.625"
     inkscape:cy="116.625"
     inkscape:window-width="1920"
     inkscape:window-height="1051"
     inkscape:window-x="-9"
     inkscape:window-y="-9"
     inkscape:window-maximized="1"
     inkscape:current-layer="layer1" />
  <defs
     id="defs2" />
  <g
     inkscape:label="Layer 1"
     inkscape:groupmode="layer"
     id="layer1">
    <g
       id="g4473"
       transform="translate(-87.279429,-111.9849)"
       inkscape:export-filename="C:\Users\16475\Desktop\50Projects\Project_AlgoVisualiser.edu\IMAGES\logo.png"
       inkscape:export-xdpi="96"
       inkscape:export-ydpi="96"
       style="fill:#ffffff;fill-opacity:1">
      <path
         id="path1054"
         style="opacity:1;fill:#ffffff;fill-opacity:1;stroke:#333333;stroke-width:0.396875;stroke-linejoin:round;stroke-miterlimit:4;stroke-dasharray:none"
         inkscape:transform-center-x="1.923317e-06"
         inkscape:transform-center-y="-1.1357732e-06"
         d="m 108.3479,112.33526 -1.32756,0.72812 8.74881,4.79816 -10.88408,6.60631 -11.163147,-6.12262 8.435147,-5.1201 -1.2299,-0.74673 -9.758057,5.92264 13.748507,7.54063 13.40435,-8.13594 z" />
      <path
         style="opacity:1;fill:#ffffff;fill-opacity:1;stroke:#333333;stroke-width:0.396875;stroke-linecap:butt;stroke-linejoin:round;stroke-miterlimit:4;stroke-dasharray:none;stroke-opacity:1"
         d="m 104.94966,127.41547 -0.032,-1.47381 -13.748517,-7.54062 0.032,1.47381 z"
         id="path1556" />
      <path
         id="path2474"
         style="opacity:1;fill:#ffffff;fill-opacity:1;stroke:#333333;stroke-width:0.396875;stroke-linecap:butt;stroke-linejoin:round;stroke-miterlimit:4;stroke-dasharray:none;stroke-opacity:1"
         d="m 107.10199,113.14503 v 0.0186 l -0.0295,-0.0134 0.46974,9.74256 1.27124,-0.77773 -0.32246,-6.72569 5.98981,3.25975 1.2883,-0.78755 -7.35252,-4.00079 -1.09658,-0.59634 -5.3e-4,-5.3e-4 z m -4.94492,0.0801 -0.21187,0.12867 -5.3e-4,5.3e-4 -1.06712,0.64751 -7.155634,4.3434 1.323951,0.72606 5.829613,-3.53881 -0.005,6.73344 1.3069,0.71676 0.009,-9.75393 -0.0284,0.015 z m 6.79597,11.79773 -1.27124,0.77773 0.13487,2.79104 -0.0233,0.0134 0.0243,0.0145 0.002,0.0284 0.0227,-0.0139 2.40657,1.41955 1.28054,-0.76275 -2.44016,-1.43815 z m -8.08478,0.154 -0.002,2.84581 0.005,0.003 -2.378148,1.52911 1.308963,0.71261 2.367815,-1.52393 0.003,0.002 v -0.004 l 0.0269,-0.0171 -0.0269,-0.0145 0.003,-2.81585 z m 20.17396,1.42006 -1.29759,0.77256 0.0935,6.81923 -5.80068,-3.41943 -1.28054,0.76274 8.40156,4.95474 0.001,-0.032 0.0165,0.009 -0.003,-0.24804 v -5.3e-4 l -0.017,-1.24799 z m -32.159274,0.63562 0.211357,8.36797 0.03152,1.24798 v 5.3e-4 l 0.0062,0.24805 0.01601,-0.01 0.0031,0.032 8.202599,-5.27771 -1.309481,-0.7121 -5.663219,3.64215 -0.172082,-6.81715 z" />
      <path
         id="path3007"
         style="opacity:1;fill:#ffffff;fill-opacity:1;stroke:#333333;stroke-width:0.396875;stroke-linecap:butt;stroke-linejoin:round;stroke-miterlimit:4;stroke-dasharray:none;stroke-opacity:1"
         d="m 100.87549,115.53248 -1.308957,0.67851 -0.003,5.33818 1.306897,0.71675 z m -1.314127,8.92762 -0.002,2.83652 1.306377,0.72296 0.002,-2.84272 z" />
      <path
         style="opacity:1;fill:#ffffff;fill-opacity:1;stroke:#333333;stroke-width:0.396875;stroke-linecap:butt;stroke-linejoin:round;stroke-miterlimit:4;stroke-dasharray:none;stroke-opacity:1"
         d="m 104.94966,127.41547 -0.0561,-1.48921 13.42781,-8.12053 0.0561,1.48921 z"
         id="path3261" />
      <path
         id="path3864"
         style="opacity:1;fill:#ffffff;fill-opacity:1;stroke:#333333;stroke-width:0.396875;stroke-linecap:butt;stroke-linejoin:round;stroke-miterlimit:4;stroke-dasharray:none;stroke-opacity:1"
         d="m 108.49081,115.38956 1.34028,0.61434 0.26145,5.33177 -1.27067,0.77919 z m 1.74483,8.85353 0.13938,2.83309 -1.26984,0.78536 -0.13968,-2.83929 z" />
      <path
         id="path3875"
         style="opacity:1;fill:#ffffff;fill-opacity:1;stroke:#333333;stroke-width:0.396875;stroke-linejoin:round;stroke-miterlimit:4;stroke-dasharray:none"
         inkscape:transform-center-x="1.923317e-06"
         inkscape:transform-center-y="-1.1357732e-06"
         d="m 87.807363,136.42261 1.29436,0.78565 -0.21909,-9.97578 11.163287,6.12274 0.27922,12.72888 -8.651707,-4.745 -0.0317,1.43849 10.008177,5.48941 -0.34388,-15.67688 -13.748107,-7.54054 z" />
      <path
         style="opacity:1;fill:#ffffff;fill-opacity:1;stroke:#333333;stroke-width:0.396875;stroke-linecap:butt;stroke-linejoin:round;stroke-miterlimit:4;stroke-dasharray:none;stroke-opacity:1"
         d="m 102.56633,131.82547 -1.26036,0.76462 0.34389,15.67688 1.26035,-0.76462 z"
         id="path3877" />
      <path
         id="path3879"
         style="opacity:1;fill:#ffffff;fill-opacity:1;stroke:#333333;stroke-width:0.396875;stroke-linecap:butt;stroke-linejoin:round;stroke-miterlimit:4;stroke-dasharray:none;stroke-opacity:1"
         d="m 105.07679,133.5567 5.3e-4,0.0264 -2.4412,1.40663 0.032,1.48983 2.46187,-1.41852 2.49597,1.31207 -0.0253,-1.48983 -2.49443,-1.31104 v -0.006 l -0.005,0.003 z m 5.10046,2.68046 0.0253,1.49035 5.96036,3.13263 -5.8477,3.50934 0.0253,1.50999 7.17734,-4.30775 1.07022,-0.64234 5.2e-4,-5.3e-4 0.21291,-0.12764 -0.016,-0.009 0.0263,-0.0181 z m -10.06347,0.20567 -8.451677,4.86947 0.02739,0.0171 -0.01603,0.01 0.217559,0.11885 5.29e-4,5.3e-4 1.094507,0.60048 7.339082,4.02508 -0.0331,-1.50947 -5.979479,-3.27939 5.833749,-3.36206 z" />
      <path
         id="path3881"
         style="opacity:1;fill:#ffffff;fill-opacity:1;stroke:#333333;stroke-width:0.396875;stroke-linecap:butt;stroke-linejoin:round;stroke-miterlimit:4;stroke-dasharray:none;stroke-opacity:1"
         d="m 94.312443,141.2953 1.24209,0.79434 4.624547,-2.66641 -0.0327,-1.49018 z m 8.388617,-3.32574 2.45729,-1.41688 -0.0271,-1.49284 -2.46292,1.41953 z" />
      <path
         style="opacity:1;fill:#ffffff;fill-opacity:1;stroke:#333333;stroke-width:0.396875;stroke-linecap:butt;stroke-linejoin:round;stroke-miterlimit:4;stroke-dasharray:none;stroke-opacity:1"
         d="m 102.56633,131.82547 -1.26165,0.79319 -13.746487,-7.56855 1.26164,-0.79319 z"
         id="path3883" />
      <path
         id="path3887"
         style="opacity:1;fill:#ffffff;fill-opacity:1;stroke:#333333;stroke-width:0.396875;stroke-linecap:butt;stroke-linejoin:round;stroke-miterlimit:4;stroke-dasharray:none;stroke-opacity:1"
         d="m 90.381003,134.7717 -0.1381,-1.46789 4.48672,-2.8923 1.31013,0.71084 z m 6.79497,-5.93783 2.38384,-1.53725 1.315057,0.70704 -2.389057,1.54061 z" />
      <path
         id="path3891"
         style="opacity:1;fill:#ffffff;fill-opacity:1;stroke:#333333;stroke-width:0.396875;stroke-linejoin:round;stroke-miterlimit:4;stroke-dasharray:none"
         inkscape:transform-center-x="1.923317e-06"
         inkscape:transform-center-y="-1.1357732e-06"
         d="m 122.47343,135.73831 -1.26283,0.83538 -0.16896,-9.97675 -10.91678,6.55216 0.21592,12.73011 8.46067,-5.07781 0.0876,1.43617 -9.78718,5.8744 -0.26592,-15.6784 13.44451,-8.06938 z" />
      <path
         style="opacity:1;fill:#ffffff;fill-opacity:1;stroke:#333333;stroke-width:0.396875;stroke-linecap:butt;stroke-linejoin:round;stroke-miterlimit:4;stroke-dasharray:none;stroke-opacity:1"
         d="m 107.54687,131.7185 1.28914,0.71504 0.26592,15.6784 -1.28914,-0.71504 z"
         id="path3893" />
      <path
         id="path3897"
         style="opacity:1;fill:#ffffff;fill-opacity:1;stroke:#333333;stroke-width:0.396875;stroke-linecap:butt;stroke-linejoin:round;stroke-miterlimit:4;stroke-dasharray:none;stroke-opacity:1"
         d="m 116.16273,140.86025 -1.21027,0.84203 -4.72472,-2.48458 -0.0252,-1.49033 z m -8.51158,-2.99706 -2.51053,-1.32027 -0.031,-1.49276 2.51626,1.32269 z" />
      <path
         style="opacity:1;fill:#ffffff;fill-opacity:1;stroke:#333333;stroke-width:0.396875;stroke-linecap:butt;stroke-linejoin:round;stroke-miterlimit:4;stroke-dasharray:none;stroke-opacity:1"
         d="m 107.54687,131.7185 1.29153,0.74354 13.44182,-8.09733 -1.29154,-0.74353 z"
         id="path3899" />
      <path
         id="path3903"
         style="opacity:1;fill:#ffffff;fill-opacity:1;stroke:#333333;stroke-width:0.396875;stroke-linecap:butt;stroke-linejoin:round;stroke-miterlimit:4;stroke-dasharray:none;stroke-opacity:1"
         d="m 119.83753,134.18872 0.0809,-1.47215 -4.59579,-2.71566 -1.2815,0.76124 z m -7.0207,-5.66914 -2.44181,-1.4434 -1.28657,0.75763 2.44715,1.44656 z" />
    </g>
  </g>
</svg>
